<svg xmlns="http://www.w3.org/2000/svg" width="500" height="500" viewBox="0 0 500 500">
  <path d="M240,-2.27373675e-13 C303.651958,-2.27373675e-13 364.696897,25.2856417 409.705627,70.2943725 C454.714358,115.303103 480,176.348042 480,240 C480,372.54834 372.54834,480 240,480 C107.45166,480 0,372.54834 0,240 C0,107.45166 107.45166,-2.27373675e-13 240,-2.27373675e-13 Z M322.763401,144.355797 C316.470879,142.705546 309.777557,144.578961 305.256,149.256 L305.256,149.256 L240,214.536 L174.72,149.28 C167.68831,142.248311 156.28769,142.248311 149.256001,149.280001 C142.224311,156.31169 142.224311,167.71231 149.256,174.744 L149.256,174.744 L214.536,240 L149.28,305.304 C144.602961,309.825557 142.729546,316.518879 144.379797,322.811401 C146.030049,329.103924 150.947152,334.016392 157.241227,335.660709 C163.535303,337.305026 170.226855,335.4253 174.744,330.744 L174.744,330.744 L240,265.464 L305.28,330.72 C309.828705,335.268705 316.458588,337.045177 322.672235,335.380235 C328.885883,333.715294 333.739294,328.861883 335.404235,322.648235 C337.069177,316.434588 335.292705,309.804705 330.744,305.256 L330.744,305.256 L265.464,240 L330.696,174.72 C335.3773,170.202855 337.257026,163.511303 335.612709,157.217227 C333.968392,150.923152 329.055924,146.006049 322.763401,144.355797 Z" transform="translate(10 10)"/>
</svg>
