<svg xmlns="http://www.w3.org/2000/svg" width="500" height="500" viewBox="0 0 500 500">
  <path d="M288,175.988571 L271.988571,175.988571 L271.988571,96 C271.988571,42.980664 229.007907,0 175.988571,0 C122.969235,0 79.9885714,42.980664 79.9885714,96 L79.9885714,175.988571 L63.9771429,175.988571 C28.6536636,176.04525 0.0377539119,204.676495 4.87229305e-13,240 L4.87229305e-13,415.988571 C0.0377934756,451.325441 28.6745592,479.962207 64.0114286,480 L288,480 C323.336869,479.962207 351.973635,451.325441 352.011429,415.988571 L352.011429,240 C351.973635,204.663131 323.336869,176.026365 288,175.988571 Z M240,175.988571 L112.011429,175.988571 L112.011429,96 C112.816196,61.2339535 141.230355,33.4699167 176.005714,33.4699167 C210.781074,33.4699167 239.195233,61.2339535 240,96 L240,175.988571 Z" transform="translate(61 10)"/>
</svg>
