<svg xmlns="http://www.w3.org/2000/svg" width="500" height="500" viewBox="0 0 500 500">
  <path d="M84.4365934,10 C56.0407906,10.028572 33.028572,33.0407906 33,61.4365934 L33,415.721896 C33.028572,444.117699 56.0407906,467.129918 84.4365934,467.15849 L234.616932,467.15849 C185.759651,416.474236 179.224493,338.442368 218.970709,280.337584 C258.716925,222.232801 333.810929,200.038852 398.757892,227.201685 L398.757892,192.870307 L267.289622,192.870307 C238.89382,192.841735 215.881601,169.829516 215.853029,141.433714 L215.853029,10 L84.4365934,10 Z M250.149851,20.0385155 L250.149851,141.433714 C250.159375,150.8958 257.827536,158.563961 267.289622,158.573485 L388.684821,158.573485 L250.149851,20.0385155 Z M341.585004,238.570606 C272.154694,238.570606 215.870307,294.854993 215.870307,364.285303 C215.870307,433.715613 272.154694,490 341.585004,490 C411.015314,490 467.299701,433.715613 467.299701,364.285303 C467.299701,330.943692 454.054798,298.967667 430.478719,275.391588 C406.90264,251.815509 374.926615,238.570606 341.585004,238.570606 Z M341.585004,272.850149 C347.888568,272.859664 352.996245,277.967341 353.005759,284.270905 L353.005759,352.84727 L421.582124,352.84727 C427.894405,352.84727 433.011519,357.964384 433.011519,364.276664 C433.011519,370.588944 427.894405,375.706058 421.582124,375.706058 L353.005759,375.706058 L353.005759,444.282423 C353.005759,450.594703 347.888645,455.711817 341.576365,455.711817 C335.264085,455.711817 330.146971,450.594703 330.146971,444.282423 L330.146971,375.723336 L261.570606,375.723336 C255.258326,375.723336 250.141212,370.606222 250.141212,364.293942 C250.141212,357.981662 255.258326,352.864548 261.570606,352.864548 L330.181527,352.864548 L330.181527,284.288183 C330.19101,277.991346 335.288189,272.886444 341.585004,272.867427 L341.585004,272.850149 Z"/>
</svg>
