<svg xmlns="http://www.w3.org/2000/svg" width="500" height="500" viewBox="0 0 500 500">
  <path d="M226,10 C345.293506,10 442,106.706494 442,226 C442,276.999923 424.324933,323.871613 394.766291,360.823577 L482.970563,449.029437 C492.343146,458.40202 492.343146,473.59798 482.970563,482.970563 C474.318948,491.622178 460.705402,492.287687 451.290413,484.967089 L449.029437,482.970563 L360.823577,394.766291 C323.871613,424.324933 276.999923,442 226,442 C106.706494,442 10,345.293506 10,226 C10,106.706494 106.706494,10 226,10 Z M226,58 C133.216162,58 58,133.216162 58,226 C58,318.783838 133.216162,394 226,394 C271.271548,394 312.360746,376.093233 342.571109,346.976183 C343.195679,346.159623 343.882821,345.376054 344.629437,344.629437 C345.37534,343.883535 346.158125,343.196994 346.971922,342.569814 C376.092445,312.362552 394,271.272543 394,226 C394,133.216162 318.783838,58 226,58 Z"/>
</svg>
