<svg xmlns="http://www.w3.org/2000/svg" width="56.331" height="60" viewBox="0 0 56.331 60"><defs><style>.a{fill:#2980b9;opacity:0.25;}.b{fill:#95c0dc;}.c{fill:#7986cb;}.d{fill:#fff;}.e{fill:#fe8f01;}</style></defs><g transform="translate(-17.842 -4)"><path class="a" d="M57,4V61l-4.5,3L48,61l-4.5,3L39,61l-4.5,3L30,61l-4.5,3L21,61l-4.5,3L12,61V4l4.5,3L21,4l4.5,3L30,4l4.5,3L39,4l4.5,3L48,4l4.5,3Z" transform="translate(5.842 0)"/><rect class="b" width="18.937" height="3.787" transform="translate(22.254 20.096)"/><rect class="c" width="6.628" height="3.787" transform="translate(52.078 20.096)"/><rect class="b" width="16.096" height="2.841" transform="translate(22.254 26.724)"/><rect class="c" width="6.628" height="2.841" transform="translate(52.078 26.724)"/><rect class="b" width="17.99" height="2.841" transform="translate(22.254 32.405)"/><rect class="c" width="6.628" height="2.841" transform="translate(52.078 32.405)"/><rect class="b" width="20.83" height="3.787" transform="translate(22.254 38.086)"/><rect class="c" width="6.628" height="3.787" transform="translate(52.078 38.086)"/><rect class="b" width="28.405" height="2.841" transform="translate(22.254 13.468)"/><rect class="d" width="6.628" height="2.841" transform="translate(52.078 53.235)"/><rect class="d" width="14.203" height="2.841" transform="translate(34.088 53.235)"/><path class="b" d="M25.1,31v3H15V31Z" transform="translate(7.254 13.5)"/><g transform="translate(46.217 17.978)"><path class="e" d="M29.957,27.978A13.978,13.978,0,1,1,15.978,14,14.02,14.02,0,0,1,29.957,27.978" transform="translate(-2 -14)"/><path class="d" d="M18.105,30.12c0,3.495-3.355,3.914-3.914,3.914v1.957h-1.4V34.034A4.3,4.3,0,0,1,8.6,29.421h2.8a2.079,2.079,0,0,0,2.1,2.376c1.817,0,1.817-1.4,1.817-1.677,0-3.075-6.29-1.817-6.29-6.71A3.936,3.936,0,0,1,12.933,19.5V17.4h1.538v2.1c.978.14,3.634.839,3.634,4.473h-2.8c0-.839-.14-2.376-1.817-2.376a1.649,1.649,0,0,0-1.538,1.817c0,2.935,6.151,1.817,6.151,6.71" transform="translate(0.626 -12.647)"/></g></g></svg>