<svg xmlns="http://www.w3.org/2000/svg" viewBox="0 0 61.8 32.27"><defs><style>.cls-1{fill:#1c75bc;}.cls-2{fill:#010101;}</style></defs><g id="Layer_2" data-name="Layer 2"><g id="Layer_1-2" data-name="Layer 1"><path class="cls-1" d="M7.88,31.77H0V.51H20V8H7.88V14.1h10v7.46H7.88Z"/><path class="cls-2" d="M61.8,16.18a15.85,15.85,0,0,1-4.51,11.44,15.61,15.61,0,0,1-11.72,4.65,15.36,15.36,0,0,1-11.64-4.65,15.93,15.93,0,0,1-4.45-11.44A15.93,15.93,0,0,1,34,4.7,15.58,15.58,0,0,1,45.74,0,15.27,15.27,0,0,1,57.37,4.68,16.11,16.11,0,0,1,61.8,16.18Zm-8,0a8.19,8.19,0,0,0-2.37-6.1,8.47,8.47,0,0,0-11.67,0,8.25,8.25,0,0,0-2.35,6.1,8.21,8.21,0,0,0,14,5.89A7.91,7.91,0,0,0,53.83,16.22Z"/></g></g></svg>