<svg xmlns="http://www.w3.org/2000/svg" viewBox="0 0 52.14 32.27"><defs><style>.cls-1{fill:#1c75bc;}.cls-2{fill:#010101;}</style></defs><g id="Layer_2" data-name="Layer 2"><g id="Layer_1-2" data-name="Layer 1"><path class="cls-1" d="M7.88,31.77H0V.51H7.88Z"/><path class="cls-2" d="M52.14,16.18a15.81,15.81,0,0,1-4.51,11.44,15.59,15.59,0,0,1-11.71,4.65,15.38,15.38,0,0,1-11.65-4.65,15.93,15.93,0,0,1-4.45-11.44A15.93,15.93,0,0,1,24.35,4.7,15.62,15.62,0,0,1,36.09,0,15.25,15.25,0,0,1,47.71,4.68,16.11,16.11,0,0,1,52.14,16.18Zm-8,0a8.16,8.16,0,0,0-2.38-6.1A8,8,0,0,0,36,7.79a7.93,7.93,0,0,0-5.82,2.33,8.22,8.22,0,0,0-2.36,6.1A8.14,8.14,0,0,0,36,24.48a8.18,8.18,0,0,0,8.22-8.26Z"/></g></g></svg>