<svg id="Layer_1" data-name="Layer 1" xmlns="http://www.w3.org/2000/svg" viewBox="0 0 433.08 32.27"><defs><style>.cls-1{fill:#027eb6;}</style></defs><path class="cls-1" d="M22.07,44.75H14.19V13.49h7.88Z" transform="translate(-14.19 -12.98)"/><path class="cls-1" d="M43.42,44.75H35.54V13H36l20.5,16.61V13.49h7.88V45.26h-.42L43.42,28.4Z" transform="translate(-14.19 -12.98)"/><path class="cls-1" d="M89.37,45.26H89L73.07,13.87l.29-.38h8.39l7.58,16.65,7.46-16.65H105l.26.34Z" transform="translate(-14.19 -12.98)"/><path class="cls-1" d="M143.5,29.16A15.81,15.81,0,0,1,139,40.6a15.55,15.55,0,0,1-11.71,4.66,15.37,15.37,0,0,1-11.65-4.66,16,16,0,0,1-4.44-11.44,15.91,15.91,0,0,1,4.53-11.47A15.55,15.55,0,0,1,127.45,13a15.27,15.27,0,0,1,11.63,4.68A16.11,16.11,0,0,1,143.5,29.16Zm-8,.05a8.16,8.16,0,0,0-2.37-6.1,8.47,8.47,0,0,0-11.67,0,8.18,8.18,0,0,0-2.35,6.1,8.2,8.2,0,1,0,16.39,0Z" transform="translate(-14.19 -12.98)"/><path class="cls-1" d="M163.33,44.75h-7.88V13.49h7.88Z" transform="translate(-14.19 -12.98)"/><path class="cls-1" d="M191.28,37.47a8.61,8.61,0,0,0,7.16-3.82l5.8,5.51a16.29,16.29,0,0,1-13.13,6.1,15.24,15.24,0,0,1-11.24-4.62,15.68,15.68,0,0,1-4.6-11.56,15.78,15.78,0,0,1,16-16.1,16.23,16.23,0,0,1,12.33,5.34l-5.76,5.42a8.07,8.07,0,0,0-6.44-3,7.6,7.6,0,0,0-5.89,2.52,8.36,8.36,0,0,0-2.29,5.78,8.45,8.45,0,0,0,2.29,5.86A7.42,7.42,0,0,0,191.28,37.47Z" transform="translate(-14.19 -12.98)"/><path class="cls-1" d="M235,37.3v7.45H215V13.49H235V21H222.88v5.38h10v6.94h-10v4Z" transform="translate(-14.19 -12.98)"/><path d="M277.68,29.16a15.81,15.81,0,0,1-4.51,11.44,15.55,15.55,0,0,1-11.71,4.66,15.33,15.33,0,0,1-11.64-4.66,15.93,15.93,0,0,1-4.45-11.44,15.91,15.91,0,0,1,4.53-11.47A15.55,15.55,0,0,1,261.63,13a15.27,15.27,0,0,1,11.63,4.68A16.11,16.11,0,0,1,277.68,29.16Zm-8,.05a8.16,8.16,0,0,0-2.37-6.1,8.47,8.47,0,0,0-11.67,0,8.18,8.18,0,0,0-2.35,6.1,8.2,8.2,0,1,0,16.39,0Z" transform="translate(-14.19 -12.98)"/><path d="M297.42,44.75h-7.88V13H290l20.5,16.61V13.49h7.88V45.26h-.43L297.42,28.4Z" transform="translate(-14.19 -12.98)"/><path d="M351.68,37v7.79H331.73V13.49h7.88V37Z" transform="translate(-14.19 -12.98)"/><path d="M371.67,44.75h-7.88V13.49h7.88Z" transform="translate(-14.19 -12.98)"/><path d="M393,44.75h-7.88V13h.42l20.5,16.61V13.49h7.88V45.26h-.42L393,28.4Z" transform="translate(-14.19 -12.98)"/><path d="M447.27,37.3v7.45H427.32V13.49h19.95V21H435.2v5.38h10v6.94h-10v4Z" transform="translate(-14.19 -12.98)"/></svg>