<svg id="Layer_1" data-name="Layer 1" xmlns="http://www.w3.org/2000/svg" viewBox="0 0 457.03 32.32"><defs><style>.cls-1{fill:#027eb6;}.cls-2{fill:#231f20;}</style></defs><path class="cls-1" d="M90.54,326.7H82.65V295.4h20v7.46H90.54V309h10v7.47h-10Z" transform="translate(-82.65 -294.89)"/><path class="cls-1" d="M124.57,294.89H125l16.5,31.47-.26.34h-8.06l-1.91-4.16h-13.1l-2,4.16h-7.89l-.25-.34Zm.21,13.44-3.39,7.26h6.7Z" transform="translate(-82.65 -294.89)"/><path class="cls-1" d="M159.47,326.7h-7.89V295.4h7.89v15.69l10.61-15.69h8.4l.17.38-10.9,14.84,12.34,15.7-.17.38h-9l-11.41-14.8Z" transform="translate(-82.65 -294.89)"/><path class="cls-1" d="M205.79,326.7H197.9V303.2h-9.63v-7.8h27.15v7.8h-9.63Z" transform="translate(-82.65 -294.89)"/><path class="cls-1" d="M233.21,312.87a7.52,7.52,0,0,0,1.4,4.71,5.24,5.24,0,0,0,4.45,1.82,5.75,5.75,0,0,0,4.78-2,7.47,7.47,0,0,0,1.59-4.85V295.4h7.89V314a12.48,12.48,0,0,1-4,9.33,14.18,14.18,0,0,1-10.25,3.86,13.79,13.79,0,0,1-10-3.63,12,12,0,0,1-3.75-9V295.4h7.89Z" transform="translate(-82.65 -294.89)"/><path class="cls-1" d="M273.72,326.7h-7.89V295.4h13a11.82,11.82,0,0,1,7.95,2.84q3.33,2.83,3.33,8.31,0,6.33-4.66,9.46l5.89,10.35-.17.34h-8.06l-4.79-8.48h-4.58Zm3.35-24.35h-3.35v8.91h2.71a6.48,6.48,0,0,0,4.14-1.23,4.06,4.06,0,0,0,1.55-3.35,3.81,3.81,0,0,0-1.45-3.22A5.72,5.72,0,0,0,277.07,302.35Z" transform="translate(-82.65 -294.89)"/><path class="cls-1" d="M316.68,294.89h.42l16.5,31.47-.25.34h-8.06l-1.91-4.16H310.27l-1.95,4.16h-7.89l-.25-.34Zm.21,13.44-3.39,7.26h6.7Z" transform="translate(-82.65 -294.89)"/><path class="cls-2" d="M372.57,311.09a15.79,15.79,0,0,1-4.52,11.45,15.56,15.56,0,0,1-11.73,4.67,15.36,15.36,0,0,1-11.66-4.67,16.9,16.9,0,0,1,.08-22.94,15.61,15.61,0,0,1,11.75-4.71,15.31,15.31,0,0,1,11.65,4.68A16.17,16.17,0,0,1,372.57,311.09Zm-8,0a8.22,8.22,0,0,0-2.38-6.11,8.5,8.5,0,0,0-11.69,0,8.24,8.24,0,0,0-2.35,6.11,8.21,8.21,0,1,0,16.42,0Z" transform="translate(-82.65 -294.89)"/><path class="cls-2" d="M392,326.7H384.1V294.89h.42l20.53,16.63V295.4h7.89v31.81h-.42L392,310.33Z" transform="translate(-82.65 -294.89)"/><path class="cls-2" d="M446,318.9v7.8H426V295.4h7.89v23.5Z" transform="translate(-82.65 -294.89)"/><path class="cls-2" d="M464.71,326.7h-7.88V295.4h7.88Z" transform="translate(-82.65 -294.89)"/><path class="cls-2" d="M485.69,326.7H477.8V294.89h.42l20.54,16.63V295.4h7.89v31.81h-.43l-20.53-16.88Z" transform="translate(-82.65 -294.89)"/><path class="cls-2" d="M539.68,319.24v7.46h-20V295.4h20v7.46H527.59v5.39h10v7h-10v4Z" transform="translate(-82.65 -294.89)"/></svg>