<?xml version="1.0" encoding="utf-8"?>
<!-- Generator: Adobe Illustrator 24.2.3, SVG Export Plug-In . SVG Version: 6.00 Build 0)  -->
<svg version="1.1" id="Layer_1" xmlns="http://www.w3.org/2000/svg" xmlns:xlink="http://www.w3.org/1999/xlink" x="0px" y="0px"
	 viewBox="0 0 457 32.3" style="enable-background:new 0 0 457 32.3;" xml:space="preserve">
<style type="text/css">
	.st0{fill:#1B75BB;}
</style>
<g>
	<path class="st0" d="M24.2,16.2c0,3.2-1.1,5.9-3.2,8.1s-4.9,3.3-8.3,3.3s-6.1-1.1-8.2-3.3s-3.1-4.9-3.1-8.1c0-3.2,1.1-5.9,3.2-8.1
		c2.1-2.2,4.9-3.3,8.3-3.3S19,5.9,21,8.1S24.2,13,24.2,16.2z M18.5,16.2c0-1.8-0.6-3.2-1.7-4.3c-1.1-1.1-2.5-1.6-4.1-1.6
		c-1.6,0-3,0.5-4.1,1.6C7.5,13,7,14.4,7,16.2c0,1.7,0.6,3,1.7,4.1c1.1,1.1,2.5,1.7,4.1,1.7c1.6,0,3-0.6,4.1-1.7
		C18,19.3,18.5,17.9,18.5,16.2z"/>
	<path class="st0" d="M38.1,27.2h-5.6V4.8h0.3l14.4,11.7V5.1h5.6v22.4h-0.3L38.1,15.7V27.2z"/>
	<path class="st0" d="M76.3,21.7v5.5H62.2v-22h5.6v16.5H76.3z"/>
	<path class="st0" d="M90.4,27.2h-5.6v-22h5.6V27.2z"/>
	<path class="st0" d="M105.4,27.2h-5.6V4.8h0.3l14.4,11.7V5.1h5.6v22.4h-0.3l-14.4-11.9V27.2z"/>
	<path class="st0" d="M143.7,21.9v5.3h-14.1v-22h14.1v5.3h-8.5v3.8h7v4.9h-7v2.8H143.7z"/>
	<path d="M157.9,27.2h-5.6v-22h14.1v5.3h-8.5v4.3h7V20h-7V27.2z"/>
	<path d="M182,4.8h0.3l11.6,22.1l-0.2,0.2h-5.7l-1.3-2.9h-9.2l-1.4,2.9h-5.6l-0.2-0.2L182,4.8z M182.2,14.2l-2.4,5.1h4.7L182.2,14.2
		z"/>
	<path d="M205.6,27.2h-5.6v-22h5.6v11l7.5-11h5.9l0.1,0.3l-7.7,10.4l8.7,11l-0.1,0.3h-6.4l-8-10.4V27.2z"/>
	<path d="M237.9,27.2h-5.6V10.6h-6.8V5.1h19.1v5.5h-6.8V27.2z"/>
	<path d="M257.4,17.4c0,1.4,0.3,2.5,1,3.3c0.7,0.9,1.7,1.3,3.1,1.3c1.5,0,2.6-0.5,3.4-1.4c0.7-0.9,1.1-2.1,1.1-3.4V5.1h5.6v13.1
		c0,2.6-0.9,4.8-2.8,6.6c-1.9,1.8-4.3,2.7-7.2,2.7c-2.9,0-5.3-0.9-7-2.6c-1.8-1.7-2.6-3.8-2.6-6.3V5.1h5.6V17.4z"/>
	<path d="M286.1,27.2h-5.6v-22h9.1c2.2,0,4,0.7,5.6,2c1.6,1.3,2.3,3.3,2.3,5.9c0,3-1.1,5.2-3.3,6.7l4.1,7.3l-0.1,0.2h-5.7l-3.4-6
		h-0.4h-2.8V27.2z M288.4,10h-2.4v6.3h1.9c1.2,0,2.2-0.3,2.9-0.9c0.7-0.6,1.1-1.4,1.1-2.4s-0.3-1.8-1-2.3
		C290.3,10.3,289.4,10,288.4,10z"/>
	<path d="M327.8,16.2c0,3.2-1.1,5.9-3.2,8.1c-2.1,2.2-4.9,3.3-8.3,3.3c-3.4,0-6.1-1.1-8.2-3.3c-2.1-2.2-3.1-4.9-3.1-8.1
		c0-3.2,1.1-5.9,3.2-8.1c2.1-2.2,4.9-3.3,8.3-3.3c3.4,0,6.1,1.1,8.2,3.3C326.8,10.3,327.8,13,327.8,16.2z M322.2,16.2
		c0-1.8-0.6-3.2-1.7-4.3c-1.1-1.1-2.5-1.6-4.1-1.6c-1.6,0-3,0.5-4.1,1.6c-1.1,1.1-1.7,2.5-1.7,4.3c0,1.7,0.6,3,1.7,4.1
		c1.1,1.1,2.5,1.7,4.1,1.7c1.6,0,3-0.6,4.1-1.7C321.6,19.3,322.2,17.9,322.2,16.2z"/>
	<path d="M341.8,27.5h-0.3l-8.8-22.1l0.2-0.3h5.9l3.8,11.4l6.1-11.8h0.3l6.6,11.8l4-11.4h5.8l0.1,0.3l-9.4,22.1h-0.3l-6.9-12.7
		L341.8,27.5z"/>
	<path d="M378.7,4.8h0.3l11.6,22.1l-0.2,0.2h-5.7l-1.3-2.9h-9.2l-1.4,2.9h-5.6l-0.2-0.2L378.7,4.8z M378.8,14.2l-2.4,5.1h4.7
		L378.8,14.2z"/>
	<path d="M402.3,27.2h-5.6V4.8h0.3l14.4,11.7V5.1h5.6v22.4h-0.3l-14.4-11.9V27.2z"/>
	<path d="M432.1,27.2h-5.6v-22h5.6V27.2z"/>
	<path d="M455.7,21.9v5.3h-14.1v-22h14.1v5.3h-8.5v3.8h7v4.9h-7v2.8H455.7z"/>
</g>
</svg>
